erDiagram
    EducationOrganization {
        integer EducationOrganizationId "I"
        descriptor EducationOrganizationCategory "RC"
        string NameOfInstitution "R"
        common Address "OC"
        common EducationOrganizationIndicator "OC"
        common InstitutionTelephone "OC"
        common InternationalAddress "OC"
        descriptor OperationalStatus "O"
        string ShortNameOfInstitution "O"
        string WebSite "O"
    }
    School {
        integer SchoolId "I"
        descriptor GradeLevel "RC"
        descriptor AccreditationStatus "O"
        descriptor AdministrativeFundingControl "O"
        descriptor CharterApprovalAgencyType "O"
        enumeration CharterApprovalSchoolYear "O"
        descriptor CharterStatus "O"
        descriptor FederalLocaleCode "O"
        bool ImprovingSchool "O"
        descriptor InternetAccess "O"
        reference LocalEducationAgency "O"
        descriptor MagnetSpecialProgramEmphasisSchool "O"
        reference PostSecondaryInstitution "O"
        descriptor SchoolCategory "OC"
        descriptor SchoolType "O"
        descriptor TitleIPartASchoolDesignation "O"
    }
    Session {
        reference School "I"
        enumeration SchoolYear "I"
        string SessionName "I"
        date BeginDate "R"
        date EndDate "R"
        descriptor Term "R"
        integer TotalInstructionalDays "R"
        reference AcademicWeek "OC"
        reference GradingPeriod "OC"
    }
    Student {
        string StudentUniqueId "I"
        common BirthData "R"
        common Name "R"
        common OtherName "OC"
        reference Person "O"
    }
    Staff {
        string StaffUniqueId "I"
        common Name "R"
        date BirthDate "O"
        reference Credential "OC"
        reference EducatorPreparationProgram "OC"
        common EducatorResearch "O"
        descriptor HighestCompletedLevelOfEducation "O"
        descriptor HighlyQualifiedAcademicSubject "OC"
        bool HighlyQualifiedTeacher "O"
        string LoginId "O"
        reference OpenStaffPosition "O"
        common OtherName "OC"
        reference Person "O"
        common Recognition "OC"
        decimal YearsOfPriorProfessionalExperience "O"
        decimal YearsOfPriorTeachingExperience "O"
    }
    Course {
        string CourseCode "I"
        reference EducationOrganization "I"
        common CourseIdentificationCode "RC"
        string CourseTitle "R"
        integer NumberOfParts "R"
        descriptor AcademicSubject "OC"
        descriptor CareerPathway "O"
        descriptor CompetencyLevel "OC"
        descriptor CourseDefinedBy "O"
        string CourseDescription "O"
        descriptor CourseGPAApplicability "O"
        descriptor CourseLevelCharacteristic "OC"
        date DateCourseAdopted "O"
        bool HighSchoolCourseRequirement "O"
        reference LearningStandard "OC"
        integer MaxCompletionsForCredit "O"
        common MaximumAvailableCredits "O"
        common MinimumAvailableCredits "O"
        descriptor OfferedGradeLevel "OC"
        integer TimeRequiredForCompletion "O"
    }
    CourseOffering {
        string LocalCourseCode "I"
        reference School "I"
        reference Session "I"
        reference Course "R"
        descriptor CourseLevelCharacteristic "OC"
        descriptor CurriculumUsed "OC"
        integer InstructionalTimePlanned "O"
        string LocalCourseTitle "O"
        descriptor OfferedGradeLevel "OC"
    }
    Section {
        reference CourseOffering "I"
        string SectionIdentifier "I"
        common AvailableCredits "O"
        reference ClassPeriod "OC"
        descriptor CourseLevelCharacteristic "OC"
        descriptor EducationalEnvironment "O"
        descriptor InstructionLanguage "O"
        reference Location "O"
        reference LocationSchool "O"
        descriptor MediumOfInstruction "O"
        descriptor OfferedGradeLevel "OC"
        bool OfficialAttendancePeriod "O"
        descriptor PopulationServed "O"
        reference Program "OC"
        descriptor SectionCharacteristic "OC"
        string SectionName "O"
        descriptor SectionType "O"
        integer SequenceOfCourse "O"
    }
    ClassPeriod {
        string ClassPeriodName "I"
        reference School "I"
        common MeetingTime "OC"
        bool OfficialAttendancePeriod "O"
    }
    Location {
        string ClassroomIdentificationCode "I"
        reference School "I"
        integer MaximumNumberOfSeats "O"
        integer OptimalNumberOfSeats "O"
    }
    Program {
        reference EducationOrganization "I"
        string ProgramName "I"
        descriptor ProgramType "I"
        reference LearningStandard "OC"
        descriptor ProgramCharacteristic "OC"
        string ProgramId "O"
        descriptor ProgramSponsor "OC"
    }
    LearningStandard {
        string LearningStandardId "I"
        descriptor AcademicSubject "RC"
        common ContentStandard "R"
        string Description "R"
        descriptor GradeLevel "RC"
        string Namespace "R"
        string CourseTitle "O"
        descriptor LearningStandardCategory "O"
        common LearningStandardIdentificationCode "OC"
        string LearningStandardItemCode "O"
        descriptor LearningStandardScope "O"
        reference ParentLearningStandard "O"
        string SuccessCriteria "O"
        string URI "O"
    }
    StudentSchoolAssociation {
        date EntryDate "I"
        reference School "I"
        reference Student "I"
        descriptor EntryGradeLevel "R"
        reference AlternativeGraduationPlan "OC"
        reference Calendar "O"
        enumeration ClassOfSchoolYear "O"
        descriptor EducationPlan "OC"
        bool EmployedWhileEnrolled "O"
        descriptor EnrollmentType "O"
        descriptor EntryGradeLevelReason "O"
        descriptor EntryType "O"
        date ExitWithdrawDate "O"
        descriptor ExitWithdrawType "O"
        decimal FullTimeEquivalency "O"
        reference GraduationPlan "O"
        descriptor NextYearGradeLevel "O"
        reference NextYearSchool "O"
        bool PrimarySchool "O"
        bool RepeatGradeIndicator "O"
        descriptor ResidencyStatus "O"
        bool SchoolChoice "O"
        descriptor SchoolChoiceBasis "O"
        bool SchoolChoiceTransfer "O"
        enumeration SchoolYear "O"
        bool TermCompletionIndicator "O"
    }
    StaffSchoolAssociation {
        descriptor ProgramAssignment "I"
        reference School "I"
        reference Staff "I"
        descriptor AcademicSubject "OC"
        reference Calendar "O"
        descriptor GradeLevel "OC"
        enumeration SchoolYear "O"
    }
    StaffProgramAssociation {
        date BeginDate "I"
        reference Program "I"
        reference Staff "I"
        date EndDate "O"
        bool StudentRecordAccess "O"
    }
    GeneralStudentProgramAssociation {
        date BeginDate "I"
        reference EducationOrganization "I"
        reference Program "I"
        reference Student "I"
        date EndDate "O"
        common ProgramParticipationStatus "OC"
        descriptor ReasonExited "O"
        bool ServedOutsideOfRegularSession "O"
    }
    StudentSectionAssociation {
        date BeginDate "I"
        reference Section "I"
        reference Student "I"
        descriptor AttemptStatus "O"
        common DualCredit "O"
        date EndDate "O"
        bool HomeroomIndicator "O"
        reference Program "OC"
        descriptor RepeatIdentifier "O"
        bool TeacherStudentDataLinkExclusion "O"
    }
    StaffSectionAssociation {
        date BeginDate "I"
        reference Section "I"
        reference Staff "I"
        descriptor ClassroomPosition "R"
        date EndDate "O"
        bool HighlyQualifiedTeacher "O"
        percent PercentageContribution "O"
        bool TeacherStudentDataLinkExclusion "O"
    }

    CourseOffering }o--|| Course : "HasAssociated"
    CourseOffering }o--|| Session : "HasAssociated"
    CourseOffering }o--|| School : "HasAssociated"
    EducationOrganization }o--o{ Program : "IsDirectProviderOf"
    EducationOrganization ||--|| School : "IsA"
    Course }o--|| EducationOrganization : "HasAssociated"
    Course }o--o{ LearningStandard : "HasAssociated"
    GeneralStudentProgramAssociation }o--|| EducationOrganization : "HasAssociated"
    Staff }|--|{ EducationOrganization : "HasAssociated"
    Staff }o--o{ EducationOrganization : "ProvidesServicesTo"
    Staff }o--o{ School : "HasAssociated"
    Staff }o--o{ Section : "HasAssociated"
    Program }o--o{ Staff : "HasAssociated"
    Session }o--|| School : "HasAssociated"
    Location }o--|| School : "HasAssociated"
    ClassPeriod }o--|| School : "HasAssociated"
    Student }o--o{ School : "HasAssociated"
    Program }o--o{ LearningStandard : "HasAssociated"
    Program }o--|| EducationOrganization : "HasAssociated"
    LearningStandard }o--o| LearningStandard : "HasFunctionalComponent"
    LearningStandard }o--o{ LearningStandard : "HasAssociatedEquivalence"
    Section }o--o{ ClassPeriod : "HasAssociated"
    Section }o--o| Location : "HasAssociated"
    Section }o--o{ Program : "HasAssociated"
    Section }o--|| CourseOffering : "HasAssociated"
    Section }|--o| School : "HasAssociated"
    Student }o--o{ Section : "ParticipatesIn"
    Student }o--o{ Program : "ParticipatesIn"
    StudentSchoolAssociation }o..|| Student : "HasAssociated"
    StudentSchoolAssociation }o..|| School : "HasAssociated"
    StudentSectionAssociation }o..|| Student : "ParticipatesIn"
    StudentSectionAssociation }o..|| Section : "ParticipatesIn"
    GeneralStudentProgramAssociation }o..|| Program : "ParticipatesIn"
    GeneralStudentProgramAssociation }o..|| Student : "ParticipatesIn"