erDiagram
    ProgramEvaluation {
        reference Program "I"
        descriptor ProgramEvaluationPeriod "I"
        string ProgramEvaluationTitle "I"
        descriptor ProgramEvaluationType "I"
        decimal EvaluationMaxNumericRating "O"
        decimal EvaluationMinNumericRating "O"
        string ProgramEvaluationDescription "O"
        common ProgramEvaluationLevel "OC"
    }
    ProgramEvaluationObjective {
        reference ProgramEvaluation "I"
        string ProgramEvaluationObjectiveTitle "I"
        decimal ObjectiveMaxNumericRating "O"
        decimal ObjectiveMinNumericRating "O"
        common ObjectiveProgramEvaluationLevel "OC"
        integer ObjectiveSortOrder "O"
        string ProgramEvaluationObjectiveDescription "O"
    }
    ProgramEvaluationElement {
        reference ProgramEvaluation "I"
        string ProgramEvaluationElementTitle "I"
        decimal ElementMaxNumericRating "O"
        decimal ElementMinNumericRating "O"
        common ElementProgramEvaluationLevel "OC"
        integer ElementSortOrder "O"
        string ProgramEvaluationElementDescription "O"
        reference ProgramEvaluationObjective "O"
    }
    EvaluationRubricDimension {
        integer EvaluationRubricRating "I"
        reference ProgramEvaluationElement "I"
        string EvaluationCriterionDescription "R"
        descriptor EvaluationRubricRatingLevel "O"
        integer RubricDimensionSortOrder "O"
    }
    StudentProgramEvaluation {
        date EvaluationDate "I"
        reference ProgramEvaluation "I"
        reference Student "I"
        reference EducationOrganization "O"
        integer EvaluationDuration "O"
        string ExternalEvaluator "OC"
        reference StaffEvaluatorStaff "O"
        common StudentEvaluationElement "OC"
        common StudentEvaluationObjective "OC"
        string SummaryEvaluationComment "O"
        decimal SummaryEvaluationNumericRating "O"
        descriptor SummaryEvaluationRatingLevel "O"
    }
    StudentEvaluationObjective {
        reference ProgramEvaluationObjective "I"
        decimal EvaluationObjectiveNumericRating "O"
        descriptor EvaluationObjectiveRatingLevel "O"
    }
    StudentEvaluationElement {
        reference ProgramEvaluationElement "I"
        decimal EvaluationElementNumericRating "O"
        descriptor EvaluationElementRatingLevel "O"
    }
    GeneralStudentProgramAssociation {
        date BeginDate "I"
        reference EducationOrganization "I"
        reference Program "I"
        reference Student "I"
        date EndDate "O"
        common ProgramParticipationStatus "OC"
        descriptor ReasonExited "O"
        bool ServedOutsideOfRegularSession "O"
    }
    StaffProgramAssociation {
        date BeginDate "I"
        reference Program "I"
        reference Staff "I"
        date EndDate "O"
        bool StudentRecordAccess "O"
    }
    Program {
        reference EducationOrganization "I"
        string ProgramName "I"
        descriptor ProgramType "I"
        reference LearningStandard "OC"
        descriptor ProgramCharacteristic "OC"
        string ProgramId "O"
        descriptor ProgramSponsor "OC"
    }
    Student {
        string StudentUniqueId "I"
        common BirthData "R"
        common Name "R"
        common OtherName "OC"
        reference Person "O"
    }
    Staff {
        string StaffUniqueId "I"
        common Name "R"
        date BirthDate "O"
        reference Credential "OC"
        reference EducatorPreparationProgram "OC"
        common EducatorResearch "O"
        descriptor HighestCompletedLevelOfEducation "O"
        descriptor HighlyQualifiedAcademicSubject "OC"
        bool HighlyQualifiedTeacher "O"
        string LoginId "O"
        reference OpenStaffPosition "O"
        common OtherName "OC"
        reference Person "O"
        common Recognition "OC"
        decimal YearsOfPriorProfessionalExperience "O"
        decimal YearsOfPriorTeachingExperience "O"
    }
    EducationOrganization {
        integer EducationOrganizationId "I"
        descriptor EducationOrganizationCategory "RC"
        string NameOfInstitution "R"
        common Address "OC"
        common EducationOrganizationIndicator "OC"
        common InstitutionTelephone "OC"
        common InternationalAddress "OC"
        descriptor OperationalStatus "O"
        string ShortNameOfInstitution "O"
        string WebSite "O"
    }
    School {
        integer SchoolId "I"
        descriptor GradeLevel "RC"
        descriptor AccreditationStatus "O"
        descriptor AdministrativeFundingControl "O"
        descriptor CharterApprovalAgencyType "O"
        enumeration CharterApprovalSchoolYear "O"
        descriptor CharterStatus "O"
        descriptor FederalLocaleCode "O"
        bool ImprovingSchool "O"
        descriptor InternetAccess "O"
        reference LocalEducationAgency "O"
        descriptor MagnetSpecialProgramEmphasisSchool "O"
        reference PostSecondaryInstitution "O"
        descriptor SchoolCategory "OC"
        descriptor SchoolType "O"
        descriptor TitleIPartASchoolDesignation "O"
    }
    EducationOrganization ||--|| School : "IsA"
    EducationOrganization }o--o{ Program : "IsDirectProviderOf"
    Program }o--o{ Staff : "HasAssociated"
    Program }o--|| EducationOrganization : "HasAssociated"
    GeneralStudentProgramAssociation }o--|| EducationOrganization : "HasAssociated"
    Student }o--o{ School : "HasAssociated"
    Student }o--o{ Program : "ParticipatesIn"
    Student ||--o{ StudentProgramEvaluation : "HasAssociated"
    StudentProgramEvaluation }o--o| EducationOrganization : "HasAssociated"
    StudentProgramEvaluation }o--|| ProgramEvaluation : "HasAssociated"
    ProgramEvaluation }o--|| Program : "HasAssociated"
    ProgramEvaluationObjective }o--|| ProgramEvaluation : "HasAssociated"
    ProgramEvaluationElement }o--o| ProgramEvaluationObjective : "HasAssociated"
    EvaluationRubricDimension }o--|| ProgramEvaluationElement : "HasAssociated"
    StudentEvaluationObjective }o--|| ProgramEvaluationObjective : "HasAssociated"
    StudentEvaluationElement }o--|| ProgramEvaluationElement : "HasAssociated"
    ProgramEvaluationElement }o--|| ProgramEvaluation : "HasAssociated"
    StudentProgramEvaluation }o--o{ Staff : "EvaluatedBy"
    StudentEvaluationObjective }o..|| StudentProgramEvaluation : "HasAssociated"
    StudentEvaluationElement }o..|| StudentProgramEvaluation : "HasAssociated"
    StaffProgramAssociation }o..|| Staff : "HasAssociated"
    StaffProgramAssociation }o..|| Program : "HasAssociated"
    GeneralStudentProgramAssociation }o..|| Program : "HasAssociated"
    GeneralStudentProgramAssociation }o..|| Student : "HasAssociated"
