erDiagram
    BellSchedule {
        string BellScheduleName "I"
        reference School "I"
        reference ClassPeriod "RC"
        string AlternateDayName "O"
        date Date "OC"
        time EndTime "O"
        descriptor GradeLevel "OC"
        time StartTime "O"
        integer TotalInstructionalTime "O"
    }
    ClassPeriod {
        string ClassPeriodName "I"
        reference School "I"
        common MeetingTime "OC"
        bool OfficialAttendancePeriod "O"
    }
    Session {
        reference School "I"
        enumeration SchoolYear "I"
        string SessionName "I"
        date BeginDate "R"
        date EndDate "R"
        descriptor Term "R"
        integer TotalInstructionalDays "R"
        reference AcademicWeek "OC"
        reference GradingPeriod "OC"
    }
    Section {
        reference CourseOffering "I"
        string SectionIdentifier "I"
        common AvailableCredits "O"
        reference ClassPeriod "OC"
        descriptor CourseLevelCharacteristic "OC"
        descriptor EducationalEnvironment "O"
        descriptor InstructionLanguage "O"
        reference Location "O"
        reference LocationSchool "O"
        descriptor MediumOfInstruction "O"
        descriptor OfferedGradeLevel "OC"
        bool OfficialAttendancePeriod "O"
        descriptor PopulationServed "O"
        reference Program "OC"
        descriptor SectionCharacteristic "OC"
        string SectionName "O"
        descriptor SectionType "O"
        integer SequenceOfCourse "O"
    }
    EducationOrganization {
        integer EducationOrganizationId "I"
        descriptor EducationOrganizationCategory "RC"
        string NameOfInstitution "R"
        common Address "OC"
        common EducationOrganizationIndicator "OC"
        common InstitutionTelephone "OC"
        common InternationalAddress "OC"
        descriptor OperationalStatus "O"
        string ShortNameOfInstitution "O"
        string WebSite "O"
    }
    School {
        integer SchoolId "I"
        descriptor GradeLevel "RC"
        descriptor AccreditationStatus "O"
        descriptor AdministrativeFundingControl "O"
        descriptor CharterApprovalAgencyType "O"
        enumeration CharterApprovalSchoolYear "O"
        descriptor CharterStatus "O"
        descriptor FederalLocaleCode "O"
        bool ImprovingSchool "O"
        descriptor InternetAccess "O"
        reference LocalEducationAgency "O"
        descriptor MagnetSpecialProgramEmphasisSchool "O"
        reference PostSecondaryInstitution "O"
        descriptor SchoolCategory "OC"
        descriptor SchoolType "O"
        descriptor TitleIPartASchoolDesignation "O"
    }
    School ||--|| EducationOrganization : "IsA"
    BellSchedule }o--|| School : "HasAssociated"
    BellSchedule ||--|{ ClassPeriod : "HasAssociated"
    ClassPeriod }o--|| School : "HasAssociated"
    Session }|--|| School : "HasAssociated"
    Section ||--o{ ClassPeriod : "HasAssociated"

