erDiagram
    Program {
        reference EducationOrganization "I"
        string ProgramName "I"
        descriptor ProgramType "I"
        reference LearningStandard "OC"
        descriptor ProgramCharacteristic "OC"
        string ProgramId "O"
        descriptor ProgramSponsor "OC"
    }
    Student {
        string StudentUniqueId "I"
        common BirthData "R"
        common Name "R"
        common OtherName "OC"
        reference Person "O"
    }
    EducationOrganization {
        integer EducationOrganizationId "I"
        descriptor EducationOrganizationCategory "RC"
        string NameOfInstitution "R"
        common Address "OC"
        common EducationOrganizationIndicator "OC"
        common InstitutionTelephone "OC"
        common InternationalAddress "OC"
        descriptor OperationalStatus "O"
        string ShortNameOfInstitution "O"
        string WebSite "O"
    }
    GeneralStudentProgramAssociation {
        reference Student "I"
		reference Program "I"
		reference EducationOrganization "I"
		date BeginDate "I"
        date EndDate "O"
        common ProgramParticipationStatus "OC"
        descriptor ReasonExited "O"
        bool ServedOutsideOfRegularSession "O"
    }
    StudentCTEProgramAssociation {
        common CTEProgramService "OC"
        bool NonTraditionalGenderStatus "O"
        bool PrivateCTEProgram "O"
        descriptor TechnicalSkillsAssessment "O"
    }
    StudentHomelessProgramAssociation {
        bool AwaitingFosterCare "O"
        descriptor HomelessPrimaryNighttimeResidence "O"
        common HomelessProgramService "OC"
        bool HomelessUnaccompaniedYouth "O"
    }
    StudentLanguageInstructionProgramAssociation {
        integer Dosage "O"
        common EnglishLanguageProficiencyAssessment "OC"
        bool EnglishLearnerParticipation "O"
        common LanguageInstructionProgramService "OC"
    }
    StudentMigrantEducationProgramAssociation {
        date LastQualifyingMove "R"
        bool PriorityForServices "R"
        descriptor ContinuationOfServicesReason "O"
        date EligibilityExpirationDate "O"
        common MigrantEducationProgramService "OC"
        date QualifyingArrivalDate "O"
        date StateResidencyDate "O"
        date USInitialEntry "O"
        date USInitialSchoolEntry "O"
        date USMostRecentEntry "O"
    }
    StudentNeglectedOrDelinquentProgramAssociation {
        descriptor ELAProgressLevel "O"
        descriptor MathematicsProgressLevel "O"
        descriptor NeglectedOrDelinquentProgram "O"
        common NeglectedOrDelinquentProgramService "OC"
    }
    StudentProgramAssociation {
        common Service "OC"
    }
    StudentSchoolFoodServiceProgramAssociation {
        bool DirectCertification "O"
        common SchoolFoodServiceProgramService "OC"
    }
    StudentSpecialEducationProgramAssociation {
        common Disability "OC"
        bool IdeaEligibility "O"
        date IEPBeginDate "O"
        date IEPEndDate "O"
        date IEPEvaluationDueDate "O"
        date IEPLastEvaluationDate "O"
        date IEPLastReviewDate "O"
        date IEPReviewDueDate "O"
        bool MedicallyFragile "O"
        bool MultiplyDisabled "O"
        decimal ReductionInHoursPerWeekComparedToPeers "O"
        decimal SchoolHoursPerWeek "O"
        common ServiceProvider "OC"
        bool ShortenedSchoolDayIndicator "O"
        date SpecialEducationExitDate "O"
        string SpecialEducationExitExplained "O"
        descriptor SpecialEducationExitReason "O"
        decimal SpecialEducationHoursPerWeek "O"
        common SpecialEducationProgramService "OC"
        descriptor SpecialEducationSetting "O"
    }
    StudentTitleIPartAProgramAssociation {
        descriptor TitleIPartAParticipant "R"
        common TitleIPartAProgramService "OC"
    }
    StudentSpecialEducationProgramEligibilityAssociation {
	    reference EducationOrganization "I"
		reference Student "I"
	    reference Program "I"
		date ConsentToEvaluationReceivedDate "I"
	    descriptor IDEAPart "R"
        date ConsentToEvaluationDate "O"
        date EligibilityConferenceDate "O"
        descriptor EligibilityDelayReason "O"
        date EligibilityDeterminationDate "O"
        date EligibilityEvaluationDate "O"
        descriptor EligibilityEvaluationType "O"
        bool EvaluationCompleteIndicator "O"
        integer EvaluationDelayDays "O"
        descriptor EvaluationDelayReason "O"
        string EvaluationLateReason "O"
        bool IDEAIndicator "O"
        date OriginalECIServicesDate "O"
        date TransitionConferenceDate "O"
        date TransitionNotificationDate "O"
    }
    StudentSection504ProgramAssociation {
        bool Section504Eligibility "R"
        bool AccommodationPlan "O"
        descriptor Section504Disability "O"
        date Section504EligibilityDecisionDate "O"
        date Section504MeetingDate "O"
    }
    EducationOrganization ||--o{ Program : "HasAssociated"
    EducationOrganization }o--o{ Program : "IsDirectProviderOf"
    Student ||..o{ GeneralStudentProgramAssociation : "ParticipatesIn"
    Program ||..o{ GeneralStudentProgramAssociation : "ParticipatesIn"
    Student }o--o{ Program : "ParticipatesIn IsEvaluated"
    GeneralStudentProgramAssociation }o--|| EducationOrganization : "HasAssociated"
    Student ||..o{ StudentSpecialEducationProgramEligibilityAssociation : "IsEvaluated"
    Program ||..o{ StudentSpecialEducationProgramEligibilityAssociation : "IsEvaluated"
    StudentSpecialEducationProgramEligibilityAssociation }o--|| EducationOrganization : "HasAssociated"
    StudentCTEProgramAssociation ||--|| GeneralStudentProgramAssociation : "IsA"
    StudentHomelessProgramAssociation ||--|| GeneralStudentProgramAssociation : "IsA"
    StudentLanguageInstructionProgramAssociation ||--|| GeneralStudentProgramAssociation : "IsA"
    StudentMigrantEducationProgramAssociation ||--|| GeneralStudentProgramAssociation : "IsA"
    StudentNeglectedOrDelinquentProgramAssociation ||--|| GeneralStudentProgramAssociation : "IsA"
    StudentProgramAssociation ||--|| GeneralStudentProgramAssociation : "IsA"
    StudentSchoolFoodServiceProgramAssociation ||--|| GeneralStudentProgramAssociation : "IsA"
    StudentSpecialEducationProgramAssociation ||--|| GeneralStudentProgramAssociation : "IsA"
    StudentTitleIPartAProgramAssociation ||--|| GeneralStudentProgramAssociation : "IsA"
    StudentSection504ProgramAssociation ||--|| GeneralStudentProgramAssociation : "IsA"
