erDiagram
    Candidate {
        string CandidateIdentifier "I"
        common BirthData "R"
        common Name "R"
        descriptor Sex "R"
        common Address "OC"
        common BackgroundCheck "O"
        common CandidateCharacteristic "OC"
        common CandidateIndicator "OC"
        common Citizenship "O"
        common Disability "OC"
        string DisplacementStatus "O"
        descriptor EconomicDisadvantage "O"
        common ElectronicMail "OC"
        descriptor EnglishLanguageExam "O"
        common EPPProgramDegree "OC"
        bool FirstGenerationStudent "O"
        string GenderIdentity "O"
        bool HispanicLatinoEthnicity "O"
        common InternationalAddress "OC"
        common Language "OC"
        descriptor LimitedEnglishProficiency "O"
        string LoginId "O"
        common OtherName "OC"
        reference Person "O"
        descriptor PreviousCareer "O"
        string ProfileThumbnail "O"
        descriptor Race "OC"
        common Telephone "OC"
        decimal TuitionCost "O"
    }
    CandidateIdentificationCode {
        reference Candidate "I"
        descriptor CandidateIdentificationSystem "I"
        reference EducationOrganization "I"
        string IdentificationCode "R"
        string AssigningOrganizationIdentificationCode "O"
    }
    EducatorPreparationProgram {
        reference EducationOrganization "I"
        string ProgramName "I"
        descriptor ProgramType "I"
        descriptor AccreditationStatus "O"
        descriptor GradeLevel "OC"
        string ProgramId "O"
    }
    FieldworkExperience {
        date BeginDate "I"
        string FieldworkIdentifier "I"
        reference Student "I"
        descriptor FieldworkType "R"
        common Coteaching "O"
        reference EducatorPreparationProgram "O"
        date EndDate "O"
        decimal HoursCompleted "O"
        reference School "O"
    }
    CandidateEducatorPreparationProgramAssociation {
        date BeginDate "I"
        reference Candidate "I"
        reference EducatorPreparationProgram "I"
        reference Application "O"
        common CandidateIndicator "OC"
        common CohortYear "OC"
        common DegreeSpecialization "OC"
        date EndDate "O"
        descriptor EPPProgramPathway "O"
        descriptor ReasonExited "O"
    }
    CandidateRelationshipToStaffAssociation {
        reference Candidate "I"
        reference Staff "I"
        date BeginDate "R"
        date EndDate "O"
        descriptor StaffToCandidateRelationship "O"
    }
    StaffEducatorPreparationProgramAssociation {
        reference EducatorPreparationProgram "I"
        reference Staff "I"
        date BeginDate "R"
        bool Completer "O"
        date EndDate "O"
    }
    Person {
        string PersonId "I"
        descriptor SourceSystem "I"
    }
    Staff {
        string StaffUniqueId "I"
        common Name "R"
        date BirthDate "O"
        reference Credential "OC"
        reference EducatorPreparationProgram "OC"
        common EducatorResearch "O"
        descriptor HighestCompletedLevelOfEducation "O"
        descriptor HighlyQualifiedAcademicSubject "OC"
        bool HighlyQualifiedTeacher "O"
        string LoginId "O"
        reference OpenStaffPosition "O"
        common OtherName "OC"
        reference Person "O"
        common Recognition "OC"
        decimal YearsOfPriorProfessionalExperience "O"
        decimal YearsOfPriorTeachingExperience "O"
    }
    EducationOrganization {
        integer EducationOrganizationId "I"
        descriptor EducationOrganizationCategory "RC"
        string NameOfInstitution "R"
        common Address "OC"
        common EducationOrganizationIndicator "OC"
        common InstitutionTelephone "OC"
        common InternationalAddress "OC"
        descriptor OperationalStatus "O"
        string ShortNameOfInstitution "O"
        string WebSite "O"
    }
    Section {
        reference CourseOffering "I"
        string SectionIdentifier "I"
        common AvailableCredits "O"
        reference ClassPeriod "OC"
        descriptor CourseLevelCharacteristic "OC"
        descriptor EducationalEnvironment "O"
        descriptor InstructionLanguage "O"
        reference Location "O"
        reference LocationSchool "O"
        descriptor MediumOfInstruction "O"
        descriptor OfferedGradeLevel "OC"
        bool OfficialAttendancePeriod "O"
        descriptor PopulationServed "O"
        reference Program "OC"
        descriptor SectionCharacteristic "OC"
        string SectionName "O"
        descriptor SectionType "O"
        integer SequenceOfCourse "O"
    }
    Candidate }o--o| Person : "HasAssociated"
    Staff }o--o| Person : "IsA"
    Candidate |o--o{ EducatorPreparationProgram : "ParticipatesIn"
    CandidateEducatorPreparationProgramAssociation }o..|| Candidate : "ParticipatesIn"
    CandidateEducatorPreparationProgramAssociation }o..|| EducatorPreparationProgram : "ParticipatesIn"
    Staff }o--o{ Candidate : "HasAssociated"
    CandidateRelationshipToStaffAssociation }o..|| Candidate : "HasAssociated"
    CandidateRelationshipToStaffAssociation }o..|| Staff : "HasAssociated"
    Staff }o--o{ EducatorPreparationProgram : "ParticipatesIn"
    StaffEducatorPreparationProgramAssociation }o..|| Staff : "ParticipatesIn"
    StaffEducatorPreparationProgramAssociation }o..|| EducatorPreparationProgram : "ParticipatesIn"
    EducationOrganization ||--o{ EducatorPreparationProgram : "HasAssociated"
    Staff }o--o{ EducationOrganization : "HasAssociated"
    FieldworkExperience }o--o| EducatorPreparationProgram : "HasAssociated"
    FieldworkExperience |o--o{ Section : "HasAssociated"
    CandidateIdentificationCode }o--|| Candidate : "HasAssociated"
    CandidateIdentificationCode |o--|| EducationOrganization : "HasAssociated"
