erDiagram
    LearningStandard {
    }
    LearningStandardEquivalenceAssociation["LearningStandard<br/>EquivalenceAssociation"] {
    }
    LearningStandard ||--o{ LearningStandard : "hasFunctionalComponent"
    LearningStandardEquivalenceAssociation }o..|| LearningStandard : "hasAssociatedEquivalence"
    LearningStandard }o--o{ LearningStandard : "hasAssociatedEquivalence"
