erDiagram
    EducationOrganization {
        integer EducationOrganizationId "I"
        descriptor EducationOrganizationCategory "RC"
        string NameOfInstitution "R"
        common Address "OC"
        common EducationOrganizationIndicator "OC"
        common InstitutionTelephone "OC"
        common InternationalAddress "OC"
        descriptor OperationalStatus "O"
        string ShortNameOfInstitution "O"
        string WebSite "O"
    }
    LocalAccount {
        string AccountIdentifier "I"
        reference EducationOrganization "I"
        integer FiscalYear "I"
        reference ChartOfAccount "R"
        string AccountName "O"
        common ReportingTag "OC"
    }
    ChartOfAccount {
        string AccountIdentifier "I"
        reference EducationOrganization "I"
        integer FiscalYear "I"
        descriptor AccountType "R"
        string AccountName "O"
        reference BalanceSheetBalanceSheetDimension "O"
        reference FunctionFunctionDimension "O"
        reference FundFundDimension "O"
        reference ObjectObjectDimension "O"
        reference OperationalUnitOperationalUnitDimension "O"
        reference ProgramProgramDimension "O"
        reference ProjectProjectDimension "O"
        common ReportingTag "OC"
        reference SourceSourceDimension "O"
    }
    LocalBudget {
        date AsOfDate "I"
        reference LocalAccount "I"
        currency Amount "R"
        descriptor FinancialCollection "O"
    }
    LocalActual {
        date AsOfDate "I"
        reference LocalAccount "I"
        currency Amount "R"
        descriptor FinancialCollection "O"
    }
    LocalEncumbrance {
        date AsOfDate "I"
        reference LocalAccount "I"
        currency Amount "R"
        descriptor FinancialCollection "O"
    }
    LocalContractedStaff {
        date AsOfDate "I"
        reference LocalAccount "I"
        reference Staff "I"
        currency Amount "R"
        descriptor FinancialCollection "O"
    }
    LocalPayroll {
        date AsOfDate "I"
        reference LocalAccount "I"
        reference Staff "I"
        currency Amount "R"
        descriptor FinancialCollection "O"
    }
    FundDimension {
        string Code "I"
        integer FiscalYear "I"
        string CodeName "O"
        descriptor ReportingTag "OC"
    }
    ProgramDimension {
        string Code "I"
        integer FiscalYear "I"
        string CodeName "O"
        descriptor ReportingTag "OC"
    }
    FunctionDimension {
        string Code "I"
        integer FiscalYear "I"
        string CodeName "O"
        descriptor ReportingTag "OC"
    }
    ObjectDimension {
        string Code "I"
        integer FiscalYear "I"
        string CodeName "O"
        descriptor ReportingTag "OC"
    }
    ProjectDimension {
        string Code "I"
        integer FiscalYear "I"
        string CodeName "O"
        descriptor ReportingTag "OC"
    }
    BalanceSheetDimension {
        string Code "I"
        integer FiscalYear "I"
        string CodeName "O"
        descriptor ReportingTag "OC"
    }
    OperationalUnitDimension {
        string Code "I"
        integer FiscalYear "I"
        string CodeName "O"
        descriptor ReportingTag "OC"
    }
    SourceDimension {
        string Code "I"
        integer FiscalYear "I"
        string CodeName "O"
        descriptor ReportingTag "OC"
    }
    Staff {
        string StaffUniqueId "I"
        common Name "R"
        date BirthDate "O"
        reference Credential "OC"
        reference EducatorPreparationProgram "OC"
        common EducatorResearch "O"
        descriptor HighestCompletedLevelOfEducation "O"
        descriptor HighlyQualifiedAcademicSubject "OC"
        bool HighlyQualifiedTeacher "O"
        string LoginId "O"
        reference OpenStaffPosition "O"
        common OtherName "OC"
        reference Person "O"
        common Recognition "OC"
        decimal YearsOfPriorProfessionalExperience "O"
        decimal YearsOfPriorTeachingExperience "O"
    }
    LocalAccount }o--|| EducationOrganization : "HasAssociated"
    LocalAccount }o--|| ChartOfAccount : "HasAssociated"
    ChartOfAccount }o--|| EducationOrganization : "HasAssociated"
    ChartOfAccount }o--o| FundDimension : "HasAssociated"
    ChartOfAccount }o--o| ProgramDimension : "HasAssociated"
    ChartOfAccount }o--o| FunctionDimension : "HasAssociated"
    ChartOfAccount }o--o| ObjectDimension : "HasAssociated"
    ChartOfAccount }o--o| ProjectDimension : "HasAssociated"
    ChartOfAccount }o--o| OperationalUnitDimension : "HasAssociated"
    ChartOfAccount }o--o| SourceDimension : "HasAssociated"
    ChartOfAccount }o--o| BalanceSheetDimension : "HasAssociated"
    LocalBudget }o--|| LocalAccount : "HasAssociated"
    LocalActual }o--|| LocalAccount : "HasAssociated"
    LocalEncumbrance }o--|| LocalAccount : "HasAssociated"
    LocalContractedStaff }o--|| LocalAccount : "HasAssociated"
    LocalContractedStaff }o--|| Staff : "HasAssociated"
    LocalPayroll }o--|| LocalAccount : "HasAssociated"
    LocalPayroll }o--|| Staff : "HasAssociated"
