erDiagram
    Student {
        string StudentUniqueId "I"
        common BirthData "R"
        common Name "R"
        common OtherName "OC"
        reference Person "O"
    }
    ReportCard {
        reference EducationOrganization "I"
        reference GradingPeriod "I"
        reference Student "I"
        reference Grade "OC"
        common GradePointAverage "OC"
        decimal NumberOfDaysAbsent "O"
        decimal NumberOfDaysInAttendance "O"
        integer NumberOfDaysTardy "O"
        reference StudentCompetencyObjective "OC"
    }
    Grade {
        descriptor GradeType "I"
        reference GradingPeriod "I"
        reference StudentSectionAssociation "I"
        date CurrentGradeAsOfDate "O"
        bool CurrentGradeIndicator "O"
        string DiagnosticStatement "O"
        string GradeEarnedDescription "O"
        common LearningStandardGrade "OC"
        string LetterGradeEarned "O"
        decimal NumericGradeEarned "O"
        descriptor PerformanceBaseConversion "O"
    }
    StudentCompetencyObjective {
        reference CompetencyObjective "I"
        reference GradingPeriod "I"
        reference Student "I"
        descriptor CompetencyLevel "R"
        string DiagnosticStatement "O"
        choice StudentCompetencyObjectiveSectionOrProgramChoice "O"
    }
    StudentSectionAssociation {
        date BeginDate "I"
        reference Section "I"
        reference Student "I"
        descriptor AttemptStatus "O"
        common DualCredit "O"
        date EndDate "O"
        bool HomeroomIndicator "O"
        reference Program "OC"
        descriptor RepeatIdentifier "O"
        bool TeacherStudentDataLinkExclusion "O"
    }
    GeneralStudentProgramAssociation {
        date BeginDate "I"
        reference EducationOrganization "I"
        reference Program "I"
        reference Student "I"
        date EndDate "O"
        common ProgramParticipationStatus "OC"
        descriptor ReasonExited "O"
        bool ServedOutsideOfRegularSession "O"
    }
    GradingPeriod {
        descriptor GradingPeriod "I"
        string GradingPeriodName "I"
        reference School "I"
        enumeration SchoolYear "I"
        date BeginDate "R"
        date EndDate "R"
        integer TotalInstructionalDays "R"
        integer PeriodSequence "O"
    }
    CompetencyObjective {
        reference EducationOrganization "I"
        string Objective "I"
        descriptor ObjectiveGradeLevel "I"
        string CompetencyObjectiveId "O"
        string Description "O"
        string SuccessCriteria "O"
    }
    Section {
        reference CourseOffering "I"
        string SectionIdentifier "I"
        common AvailableCredits "O"
        reference ClassPeriod "OC"
        descriptor CourseLevelCharacteristic "OC"
        descriptor EducationalEnvironment "O"
        descriptor InstructionLanguage "O"
        reference Location "O"
        reference LocationSchool "O"
        descriptor MediumOfInstruction "O"
        descriptor OfferedGradeLevel "OC"
        bool OfficialAttendancePeriod "O"
        descriptor PopulationServed "O"
        reference Program "OC"
        descriptor SectionCharacteristic "OC"
        string SectionName "O"
        descriptor SectionType "O"
        integer SequenceOfCourse "O"
    }
    Program {
        reference EducationOrganization "I"
        string ProgramName "I"
        descriptor ProgramType "I"
        reference LearningStandard "OC"
        descriptor ProgramCharacteristic "OC"
        string ProgramId "O"
        descriptor ProgramSponsor "OC"
    }
    LearningStandard {
        string LearningStandardId "I"
        descriptor AcademicSubject "RC"
        common ContentStandard "R"
        string Description "R"
        descriptor GradeLevel "RC"
        string Namespace "R"
        string CourseTitle "O"
        descriptor LearningStandardCategory "O"
        common LearningStandardIdentificationCode "OC"
        string LearningStandardItemCode "O"
        descriptor LearningStandardScope "O"
        reference ParentLearningStandard "O"
        string SuccessCriteria "O"
        string URI "O"
    }
    EducationOrganization {
        integer EducationOrganizationId "I"
        descriptor EducationOrganizationCategory "RC"
        string NameOfInstitution "R"
        common Address "OC"
        common EducationOrganizationIndicator "OC"
        common InstitutionTelephone "OC"
        common InternationalAddress "OC"
        descriptor OperationalStatus "O"
        string ShortNameOfInstitution "O"
        string WebSite "O"
    }
    ReportCard }o--o{ StudentCompetencyObjective : "HasAssociated"
    ReportCard ||--o{ Grade : "HasFunctional Component"
    ReportCard }o--|| Student : "HasAssociated"
    ReportCard }o--|| GradingPeriod : "HasAssociated"
    ReportCard }o--|| EducationOrganization : "HasAssociated"
    Grade }o--|| GradingPeriod : "HasAssociated"
    Grade }o--|| StudentSectionAssociation : "HasAssociated"
    Grade }o--o{ LearningStandard : "HasAssociated"
    StudentCompetencyObjective }o--|| Student : "HasAssociated"
    StudentCompetencyObjective }o--o{ GeneralStudentProgramAssociation : "HasAssociated"
    StudentCompetencyObjective }o--o{ StudentSectionAssociation : "HasAssociated"
    StudentCompetencyObjective }o--|| GradingPeriod : "HasAssociated"
    StudentCompetencyObjective }o--|| CompetencyObjective : "HasAssociated"
    Student }o--o{ Section : "ParticipatesIn"
    Student }o--o{ Program : "ParticipatesIn"
    CompetencyObjective }o--|| EducationOrganization : "HasAssociated"
    Program }o--|| EducationOrganization : "HasAssociated"
    Program }o--o{ Section : "HasAssociated"
    LearningStandard }o--o| LearningStandard : "HasFunctionalComponent"
    LearningStandard }o--o{ LearningStandard : "HasAssociatedEquivalence"
    GeneralStudentProgramAssociation }o--|| EducationOrganization : "HasAssociated"
    GeneralStudentProgramAssociation }o..|| Student : "HasAssociated"
    GeneralStudentProgramAssociation }o..|| Program : "HasAssociated"
