erDiagram
    Student {
        string StudentUniqueId "I"
        common BirthData "R"
        common Name "R"
        common OtherName "OC"
        reference Person "O"
    }
    StudentAcademicRecord {
        reference EducationOrganization "I"
        enumeration SchoolYear "I"
        reference Student "I"
        descriptor Term "I"
        common AcademicHonor "OC"
        common ClassRanking "O"
        common CumulativeAttemptedCredits "O"
        common CumulativeEarnedCredits "O"
        common Diploma "OC"
        common GradePointAverage "OC"
        date ProjectedGraduationDate "O"
        common Recognition "OC"
        reference ReportCard "OC"
        common SessionAttemptedCredits "O"
        common SessionEarnedCredits "O"
    }
    CourseTranscript {
        reference Course "I"
        descriptor CourseAttemptResult "I"
        reference StudentAcademicRecord "I"
        descriptor AcademicSubject "OC"
        common AlternativeCourseIdentificationCode "OC"
        string AlternativeCourseTitle "O"
        string AssigningOrganizationIdentificationCode "O"
        common AttemptedCredits "O"
        string CourseCatalogURL "O"
        reference CourseProgram "OC"
        descriptor CourseRepeatCode "O"
        string CourseTitle "O"
        descriptor CreditCategory "OC"
        common EarnedAdditionalCredits "OC"
        common EarnedCredits "O"
        reference ExternalEducationOrganization "O"
        string ExternalEducationOrganizationNameOfInstitution "O"
        string FinalLetterGradeEarned "O"
        decimal FinalNumericGradeEarned "O"
        descriptor MethodCreditEarned "O"
        common PartialCourseTranscriptAwards "OC"
        reference ResponsibleTeacherStaff "O"
        reference Section "OC"
        descriptor WhenTakenGradeLevel "O"
    }
    Course {
        string CourseCode "I"
        reference EducationOrganization "I"
        common CourseIdentificationCode "RC"
        string CourseTitle "R"
        integer NumberOfParts "R"
        descriptor AcademicSubject "OC"
        descriptor CareerPathway "O"
        descriptor CompetencyLevel "OC"
        descriptor CourseDefinedBy "O"
        string CourseDescription "O"
        descriptor CourseGPAApplicability "O"
        descriptor CourseLevelCharacteristic "OC"
        date DateCourseAdopted "O"
        bool HighSchoolCourseRequirement "O"
        reference LearningStandard "OC"
        integer MaxCompletionsForCredit "O"
        common MaximumAvailableCredits "O"
        common MinimumAvailableCredits "O"
        descriptor OfferedGradeLevel "OC"
        integer TimeRequiredForCompletion "O"
    }
    EducationOrganization {
        integer EducationOrganizationId "I"
        descriptor EducationOrganizationCategory "RC"
        string NameOfInstitution "R"
        common Address "OC"
        common EducationOrganizationIndicator "OC"
        common InstitutionTelephone "OC"
        common InternationalAddress "OC"
        descriptor OperationalStatus "O"
        string ShortNameOfInstitution "O"
        string WebSite "O"
    }
    CourseTranscript }o--|| StudentAcademicRecord : "HasAssociated"
    CourseTranscript }o--o| EducationOrganization : "HasAssociatedExternal"
    CourseTranscript }o--|| Course : "HasAssociated"
    StudentAcademicRecord }o--|| Student : "HasAssociated"
    StudentAcademicRecord }o--|| EducationOrganization : "HasAssociated"
    Course }o--|| EducationOrganization : "HasAssociated"