erDiagram
    Student {
        string StudentUniqueId "I"
        common BirthData "R"
        common Name "R"
        common OtherName "OC"
        reference Person "O"
    }
    Staff {
        string StaffUniqueId "I"
        common Name "R"
        date BirthDate "O"
        reference Credential "OC"
        reference EducatorPreparationProgram "OC"
        common EducatorResearch "O"
        descriptor HighestCompletedLevelOfEducation "O"
        descriptor HighlyQualifiedAcademicSubject "OC"
        bool HighlyQualifiedTeacher "O"
        string LoginId "O"
        reference OpenStaffPosition "O"
        common OtherName "OC"
        reference Person "O"
        common Recognition "OC"
        decimal YearsOfPriorProfessionalExperience "O"
        decimal YearsOfPriorTeachingExperience "O"
    }
    Cohort {
        string CohortIdentifier "I"
        reference EducationOrganization "I"
        descriptor CohortType "R"
        descriptor AcademicSubject "O"
        string CohortDescription "O"
        descriptor CohortScope "O"
        reference Program "OC"
    }
    StudentCohortAssociation {
        date BeginDate "I"
        reference Cohort "I"
        reference Student "I"
        date EndDate "O"
        reference Section "OC"
    }
    StaffCohortAssociation {
        date BeginDate "I"
        reference Cohort "I"
        reference Staff "I"
        date EndDate "O"
        bool StudentRecordAccess "O"
    }
    StudentInterventionAssociation {
        reference Intervention "I"
        reference Student "I"
        reference Cohort "O"
        string DiagnosticStatement "O"
        integer Dosage "O"
        common InterventionEffectiveness "OC"
    }
    Intervention {
        reference EducationOrganization "I"
        string InterventionIdentificationCode "I"
        date BeginDate "R"
        descriptor DeliveryMethod "R"
        common EducationContentSource "R"
        descriptor InterventionClass "R"
        descriptor AppropriateGradeLevel "OC"
        descriptor AppropriateSex "OC"
        descriptor Diagnosis "OC"
        date EndDate "O"
        reference InterventionPrescription "OC"
        integer MaxDosage "O"
        common MeetingTime "OC"
        integer MinDosage "O"
        string Namespace "O"
        descriptor PopulationServed "OC"
        reference Staff "OC"
    }
    StudentSectionAssociation {
        date BeginDate "I"
        reference Section "I"
        reference Student "I"
        descriptor AttemptStatus "O"
        common DualCredit "O"
        date EndDate "O"
        bool HomeroomIndicator "O"
        reference Program "OC"
        descriptor RepeatIdentifier "O"
        bool TeacherStudentDataLinkExclusion "O"
    }
    StaffSectionAssociation {
        date BeginDate "I"
        reference Section "I"
        reference Staff "I"
        descriptor ClassroomPosition "R"
        date EndDate "O"
        bool HighlyQualifiedTeacher "O"
        percent PercentageContribution "O"
        bool TeacherStudentDataLinkExclusion "O"
    }
    Program {
        reference EducationOrganization "I"
        string ProgramName "I"
        descriptor ProgramType "I"
        reference LearningStandard "OC"
        descriptor ProgramCharacteristic "OC"
        string ProgramId "O"
        descriptor ProgramSponsor "OC"
    }
    Section {
        reference CourseOffering "I"
        string SectionIdentifier "I"
        common AvailableCredits "O"
        reference ClassPeriod "OC"
        descriptor CourseLevelCharacteristic "OC"
        descriptor EducationalEnvironment "O"
        descriptor InstructionLanguage "O"
        reference Location "O"
        reference LocationSchool "O"
        descriptor MediumOfInstruction "O"
        descriptor OfferedGradeLevel "OC"
        bool OfficialAttendancePeriod "O"
        descriptor PopulationServed "O"
        reference Program "OC"
        descriptor SectionCharacteristic "OC"
        string SectionName "O"
        descriptor SectionType "O"
        integer SequenceOfCourse "O"
    }
    EducationOrganization {
        integer EducationOrganizationId "I"
        descriptor EducationOrganizationCategory "RC"
        string NameOfInstitution "R"
        common Address "OC"
        common EducationOrganizationIndicator "OC"
        common InstitutionTelephone "OC"
        common InternationalAddress "OC"
        descriptor OperationalStatus "O"
        string ShortNameOfInstitution "O"
        string WebSite "O"
    }
    Staff }o--o{ EducationOrganization : "ProvidesServicesTo"
    Staff ||--|{ EducationOrganization : "HasAssociated"
    Staff }o--o{ Section : "HasAssociated"
    StudentCohortAssociation }o--o{ Section : "HasAssociated"
    Section }o--o{ Program : "HasAssociated"
    EducationOrganization }o--o{ Program : "IsDirectProviderOf"
    StudentInterventionAssociation }o--o| Cohort : "HasAssociated"
    Intervention }o--|| EducationOrganization : "HasAssociated"
    Intervention }o--o{ Staff : "HasAssociated"
    Cohort }o--o{ Program : "HasAssociated"
    Cohort }o--|| EducationOrganization : "HasAssociated"
    Cohort }o--o{ Staff : "HasAssociated"
    Cohort }o--o{ Student : "HasAssociated"
    Program }o--o{ Staff : "HasAssociated"
    Program }o--|| EducationOrganization : "HasAssociated"
    Student }o--o{ Intervention : "HasAssociated"
    Student }o--o{ Section : "ParticipatesIn"
    Student }o--o{ Program : "ParticipatesIn"
    StudentCohortAssociation }o..|| Student : "HasAssociated"
    StudentCohortAssociation }o..|| Cohort : "HasAssociated"
    StudentInterventionAssociation }o..|| Student : "HasAssociated"
    StudentInterventionAssociation }o..|| Intervention : "HasAssociated"
    StaffSectionAssociation }o..|| Staff : "HasAssociated"
    StaffSectionAssociation }o..|| Section : "HasAssociated"
    StaffCohortAssociation }o..|| Staff : "HasAssociated"
    StaffCohortAssociation }o..|| Cohort : "HasAssociated"