erDiagram
    Student {
    }
    StudentSchoolAssociation {
    }
    StudentAcademicRecord {
    }
    GraduationPlan {
    }
    PostSecondaryEvent {
    }
    PostSecondaryInstitution {
    }
    EducationOrganization {
    }
    School {
    }
    Student }o--}o EducationOrganization : "HasAssociated"
    Student }o--o{ School : "HasAssociated"
    StudentSchoolAssociation }o..|| Student : "HasAssociated"
    StudentSchoolAssociation }o..|| School : "HasAssociated"
    StudentSchoolAssociation }o--o{ GraduationPlan : "HasAssociatedAlternative"
    StudentSchoolAssociation }o--o| GraduationPlan : "HasAssociatedPrimary"
    StudentAcademicRecord }o--|| Student : "HasAssociated"
    StudentAcademicRecord }o--|| EducationOrganization : "HasAssociated"
    GraduationPlan }o--|| EducationOrganization : "HasAssociated"
    PostSecondaryEvent }o--|| Student : "HasAssociated"
    PostSecondaryEvent }o--o| PostSecondaryInstitution : "HasAssociated"
    PostSecondaryInstitution ||--|| EducationOrganization : "IsA"
    School ||--|| EducationOrganization : "IsA"
