erDiagram
    Credential {
        string CredentialIdentifier "I"
        descriptor StateOfIssueStateAbbreviation "I"
        descriptor CredentialType "R"
        date IssuanceDate "R"
        string Namespace "R"
        descriptor AcademicSubject "OC"
        bool BoardCertificationIndicator "O"
        reference Certification "O"
        descriptor CertificationRoute "O"
        string CertificationTitle "O"
        string CredentialEndorsement "OC"
        descriptor CredentialField "O"
        descriptor CredentialStatus "O"
        date CredentialStatusDate "O"
        descriptor EducatorRole "O"
        date EffectiveDate "O"
        date ExpirationDate "O"
        descriptor GradeLevel "OC"
        reference Person "O"
        reference StudentAcademicRecord "OC"
        descriptor TeachingCredential "O"
        descriptor TeachingCredentialBasis "O"
    }
    CredentialEvent {
        reference Credential "I"
        date CredentialEventDate "I"
        descriptor CredentialEventType "I"
        string CredentialEventReason "O"
    }
    Certification {
        string CertificationIdentifier "I"
        string Namespace "I"
        string CertificationTitle "R"
        reference CertificationExam "OC"
        descriptor CertificationField "O"
        descriptor CertificationLevel "O"
        descriptor CertificationRoute "OC"
        descriptor CertificationStandard "O"
        reference EducationOrganization "O"
        descriptor EducatorRole "O"
        date EffectiveDate "O"
        date EndDate "O"
        descriptor GradeLevel "OC"
        descriptor InstructionalSetting "O"
        descriptor MinimumDegree "O"
        descriptor PopulationServed "O"
    }
    CertificationExam {
        string CertificationExamIdentifier "I"
        string Namespace "I"
        string CertificationExamTitle "R"
        descriptor CertificationExamType "O"
        reference EducationOrganization "O"
        date EffectiveDate "O"
        date EndDate "O"
    }
    CertificationExamResult {
        reference CertificationExam "I"
        date CertificationExamDate "I"
        reference Person "I"
        integer AttemptNumber "O"
        bool CertificationExamPassIndicator "O"
        decimal CertificationExamScore "O"
        descriptor CertificationExamStatus "O"
        reference CertificationExamStudentAssessment "O"
    }
    Person {
        string PersonId "I"
        descriptor SourceSystem "I"
    }
    Staff {
        string StaffUniqueId "I"
        common Name "R"
        date BirthDate "O"
        reference Credential "OC"
        reference EducatorPreparationProgram "OC"
        common EducatorResearch "O"
        descriptor HighestCompletedLevelOfEducation "O"
        descriptor HighlyQualifiedAcademicSubject "OC"
        bool HighlyQualifiedTeacher "O"
        string LoginId "O"
        reference OpenStaffPosition "O"
        common OtherName "OC"
        reference Person "O"
        common Recognition "OC"
        decimal YearsOfPriorProfessionalExperience "O"
        decimal YearsOfPriorTeachingExperience "O"
    }
    StudentAcademicRecord {
        reference EducationOrganization "I"
        enumeration SchoolYear "I"
        reference Student "I"
        descriptor Term "I"
        common AcademicHonor "OC"
        common ClassRanking "O"
        common CumulativeAttemptedCredits "O"
        common CumulativeEarnedCredits "O"
        common Diploma "OC"
        common GradePointAverage "OC"
        date ProjectedGraduationDate "O"
        common Recognition "OC"
        reference ReportCard "OC"
        common SessionAttemptedCredits "O"
        common SessionEarnedCredits "O"
    }
    EducationOrganization {
        integer EducationOrganizationId "I"
        descriptor EducationOrganizationCategory "RC"
        string NameOfInstitution "R"
        common Address "OC"
        common EducationOrganizationIndicator "OC"
        common InstitutionTelephone "OC"
        common InternationalAddress "OC"
        descriptor OperationalStatus "O"
        string ShortNameOfInstitution "O"
        string WebSite "O"
    }
    StudentAssessment {
        reference Assessment "I"
        reference Student "I"
        string StudentAssessmentIdentifier "I"
        enumeration SchoolYear "R"
        descriptor Accommodation "OC"
        datetime AdministrationDate "O"
        datetime AdministrationEndDate "O"
        descriptor AdministrationEnvironment "O"
        descriptor AdministrationLanguage "O"
        descriptor AssessedGradeLevel "O"
        integer AssessedMinutes "O"
        common AssessmentPeriod "O"
        descriptor EventCircumstance "O"
        string EventDescription "O"
        common PerformanceLevel "OC"
        descriptor PlatformType "O"
        descriptor ReasonNotTested "O"
        reference ReportedSchool "O"
        string ReportedSchoolIdentifier "O"
        descriptor RetestIndicator "O"
        common ScoreResult "OC"
        string SerialNumber "O"
        common StudentAssessmentIndicator "OC"
        common StudentAssessmentItem "OC"
        common StudentObjectiveAssessment "OC"
        descriptor WhenAssessedGradeLevel "O"
    }
    Staff }o--o| Person : "IsA"
    Staff }o--o{ EducationOrganization : "HasAssociated"
    Credential }o--o{ Staff : "HasAssociated"
    Credential }o--o| Person : "HasAssociated"
    Credential }o--o| Certification : "HasAssociated"
    Credential }o--o{ StudentAcademicRecord : "HasAssociated"
    CredentialEvent }o--|| Credential : "HasAssociated"
    Certification }o--o{ CertificationExam : "HasAssociated"
    Certification }o--o{ EducationOrganization : "HasAssociated"
    CertificationExam }o--o{ EducationOrganization : "HasAssociated"
    CertificationExamResult }o--|| CertificationExam : "HasAssociated"
    CertificationExamResult }o--|| Person : "HasAssociated"
    CertificationExamResult |o--o| StudentAssessment : "HasAssociated"
