erDiagram
    PerformanceEvaluation {
        reference EducationOrganization "I"
        descriptor EvaluationPeriod "I"
        string PerformanceEvaluationTitle "I"
        descriptor PerformanceEvaluationType "I"
        enumeration SchoolYear "I"
        descriptor Term "I"
        descriptor AcademicSubject "O"
        descriptor GradeLevel "OC"
        string PerformanceEvaluationDescription "O"
        common PerformanceEvaluationRatingLevel "OC"
    }
    PerformanceEvaluationRating {
        reference PerformanceEvaluation "I"
        reference Person "I"
        date ActualDate "R"
        integer ActualDuration "O"
        time ActualTime "O"
        bool Announced "O"
        string Comments "O"
        descriptor CoteachingStyleObserved "O"
        descriptor PerformanceEvaluationRatingLevel "O"
        common PerformanceEvaluationRatingResult "OC"
        common Reviewer "OC"
        date ScheduleDate "O"
    }
    Evaluation {
        string EvaluationTitle "I"
        reference PerformanceEvaluation "I"
        string EvaluationDescription "O"
        common EvaluationRatingLevel "OC"
        descriptor EvaluationType "O"
        integer InterRaterReliabilityScore "O"
        decimal MaxNumericRating "O"
        decimal MinNumericRating "O"
    }
    EvaluationRating {
        reference Evaluation "I"
        datetime EvaluationDate "I"
        reference PerformanceEvaluationRating "I"
        integer ActualDuration "O"
        string Comments "O"
        descriptor EvaluationRatingLevel "O"
        common EvaluationRatingResult "OC"
        descriptor EvaluationRatingStatus "O"
        common Reviewer "OC"
        reference Section "O"
    }
    EvaluationObjective {
        reference Evaluation "I"
        string EvaluationObjectiveTitle "I"
        string EvaluationObjectiveDescription "O"
        descriptor EvaluationType "O"
        decimal MaxNumericRating "O"
        decimal MinNumericRating "O"
        common ObjectiveRatingLevel "OC"
        integer SortOrder "O"
    }
    EvaluationObjectiveRating {
        reference EvaluationObjective "I"
        reference EvaluationRating "I"
        string Comments "O"
        descriptor ObjectiveRatingLevel "O"
        common ObjectiveRatingResult "OC"
    }
    EvaluationElement {
        string EvaluationElementTitle "I"
        reference EvaluationObjective "I"
        common ElementRatingLevel "OC"
        descriptor EvaluationType "O"
        decimal MaxNumericRating "O"
        decimal MinNumericRating "O"
        integer SortOrder "O"
    }
    EvaluationElementRating {
        reference EvaluationElement "I"
        reference EvaluationObjectiveRating "I"
        string AreaOfRefinement "O"
        string AreaOfReinforcement "O"
        string Comments "O"
        common ElementRatingResult "OC"
        descriptor EvaluationElementRatingLevel "O"
        string Feedback "O"
    }
    QuantitativeMeasure {
        reference EvaluationElement "I"
        string QuantitativeMeasureIdentifier "I"
        descriptor QuantitativeMeasureDatatype "O"
        descriptor QuantitativeMeasureType "O"
    }
    QuantitativeMeasureScore {
        reference EvaluationElementRating "I"
        reference QuantitativeMeasure "I"
        decimal ScoreValue "R"
        decimal StandardError "O"
    }
    Goal {
        date AssignmentDate "I"
        string GoalTitle "I"
        reference Person "I"
        string Comments "O"
        date CompletedDate "O"
        bool CompletedIndicator "O"
        date DueDate "O"
        reference EvaluationElement "O"
        reference EvaluationObjective "O"
        string GoalDescription "O"
        descriptor GoalType "O"
        reference ParentGoal "O"
    }
    Person {
        string PersonId "I"
        descriptor SourceSystem "I"
    }
    Section {
        reference CourseOffering "I"
        string SectionIdentifier "I"
        common AvailableCredits "O"
        reference ClassPeriod "OC"
        descriptor CourseLevelCharacteristic "OC"
        descriptor EducationalEnvironment "O"
        descriptor InstructionLanguage "O"
        reference Location "O"
        reference LocationSchool "O"
        descriptor MediumOfInstruction "O"
        descriptor OfferedGradeLevel "OC"
        bool OfficialAttendancePeriod "O"
        descriptor PopulationServed "O"
        reference Program "OC"
        descriptor SectionCharacteristic "OC"
        string SectionName "O"
        descriptor SectionType "O"
        integer SequenceOfCourse "O"
    }
    SurveySectionAggregateResponse {
        reference EvaluationElementRating "I"
        reference SurveySection "I"
        decimal ScoreValue "R"
    }
    EducationOrganization {
        integer EducationOrganizationId "I"
        descriptor EducationOrganizationCategory "RC"
        string NameOfInstitution "R"
        common Address "OC"
        common EducationOrganizationIndicator "OC"
        common InstitutionTelephone "OC"
        common InternationalAddress "OC"
        descriptor OperationalStatus "O"
        string ShortNameOfInstitution "O"
        string WebSite "O"
    }
    PerformanceEvaluation }o--|| EducationOrganization : "HasAssociated"
    PerformanceEvaluation ||--o{ Evaluation : "HasAssociated"
    PerformanceEvaluationRating }o--|| PerformanceEvaluation : "HasAssociated"
    PerformanceEvaluationRating ||--o{ EvaluationRating : "HasAssociated"
    PerformanceEvaluationRating }o--|| Person : "HasAssociated"
    EvaluationRating }o--|| Evaluation : "HasAssociated"
    EvaluationRating ||--o{ EvaluationObjectiveRating : "HasAssociated"
    Evaluation ||--o{ EvaluationObjective : "HasAssociated"
    EvaluationObjective ||--o{ EvaluationElement : "HasAssociated"
    EvaluationObjectiveRating }o--|| EvaluationObjective : "HasAssociated"
    EvaluationObjectiveRating ||--o{ EvaluationElementRating : "HasAssociated"
    EvaluationElementRating }o--|| EvaluationElement : "HasAssociated"
    EvaluationElementRating ||--o{ QuantitativeMeasureScore : "HasAssociated"
    EvaluationElement ||--o{ QuantitativeMeasure : "HasAssociated"
    QuantitativeMeasureScore }o--|| QuantitativeMeasure : "HasAssociated"
    Goal }o--|| Person : "HasAssociated"
    Goal }o--o| EvaluationObjective : "HasAssociated"
    Goal }o--o| EvaluationElement : "HasAssociated"
    Goal }o--o| Goal : "HasFunctionalComponent"
    Section |o--o{ EvaluationRating : "HasAssociated"
    SurveySectionAggregateResponse |o--|| EvaluationElementRating : "HasAssociated"